<svg xmlns="http://www.w3.org/2000/svg" width="120" height="40" viewBox="0 0 120 40">
    <g fill="none" fill-rule="evenodd">
        <rect width="120" height="40" fill="#6A7A91" rx="2"/>
        <g fill="#FFF" fill-rule="nonzero">
            <path d="M57.305 21.076a3.638 3.638 0 0 0-3.615 3.654 3.638 3.638 0 0 0 3.638 3.631 3.638 3.638 0 0 0 3.627-3.642A3.597 3.597 0 0 0 59.9 22.12a3.576 3.576 0 0 0-2.595-1.045zm0 5.854a2.204 2.204 0 0 1-2.143-1.253 2.216 2.216 0 0 1 .375-2.46 2.2 2.2 0 0 1 2.419-.552 2.211 2.211 0 0 1 1.4 2.054 2.112 2.112 0 0 1-.56 1.54 2.1 2.1 0 0 1-1.49.671zm-7.957-5.854a3.638 3.638 0 0 0-3.624 3.648 3.638 3.638 0 0 0 3.635 3.637 3.638 3.638 0 0 0 3.63-3.642 3.597 3.597 0 0 0-1.055-2.598 3.576 3.576 0 0 0-2.595-1.045h.009zm0 5.854a2.204 2.204 0 0 1-2.15-1.246 2.216 2.216 0 0 1 .37-2.462 2.2 2.2 0 0 1 2.42-.557c.844.33 1.4 1.145 1.403 2.054a2.112 2.112 0 0 1-.56 1.54 2.1 2.1 0 0 1-1.492.671h.009zm-9.479-4.731v1.542h3.693a3.236 3.236 0 0 1-.855 1.946 3.772 3.772 0 0 1-2.846 1.132 4.108 4.108 0 0 1-4.103-4.115 4.108 4.108 0 0 1 4.103-4.114 3.926 3.926 0 0 1 2.795 1.106l1.085-1.089a5.368 5.368 0 0 0-3.872-1.603 5.646 5.646 0 0 0-5.075 2.765 5.68 5.68 0 0 0 0 5.793 5.646 5.646 0 0 0 5.075 2.765 5.12 5.12 0 0 0 3.94-1.586 5.151 5.151 0 0 0 1.334-3.617 5.045 5.045 0 0 0-.086-.968l-5.188.043zm38.727 1.2a3.42 3.42 0 0 0-3.111-2.323 3.414 3.414 0 0 0-2.497 1.078 3.434 3.434 0 0 0-.922 2.565 3.571 3.571 0 0 0 1.032 2.59 3.55 3.55 0 0 0 2.575 1.052 3.613 3.613 0 0 0 3.025-1.611l-1.239-.857a2.076 2.076 0 0 1-1.786 1.011 1.846 1.846 0 0 1-1.761-1.105l4.863-2.015-.18-.385zm-4.957 1.217a2 2 0 0 1 .503-1.463c.357-.4.86-.639 1.394-.663a1.41 1.41 0 0 1 1.35.771l-3.247 1.355zm-3.95 3.531h1.6V17.433h-1.6v10.714zm-2.615-6.257h-.06a2.56 2.56 0 0 0-1.914-.857 3.647 3.647 0 0 0-3.465 3.647 3.647 3.647 0 0 0 3.465 3.647 2.476 2.476 0 0 0 1.915-.857h.05v.523c0 1.397-.743 2.143-1.94 2.143a2.009 2.009 0 0 1-1.828-1.295l-1.394.583a3.461 3.461 0 0 0 3.223 2.152c1.871 0 3.418-1.106 3.418-3.797V21.29h-1.47v.6zm-1.829 5.04a2.218 2.218 0 0 1-2.019-2.211c0-1.151.877-2.11 2.02-2.212.552.029 1.069.28 1.434.696.366.416.548.963.506 1.516a2.044 2.044 0 0 1-.503 1.523c-.368.418-.89.667-1.446.688h.008zm20.838-9.497h-3.82v10.714h1.598v-4.063h2.23a3.322 3.322 0 0 0 3.078-1.59 3.342 3.342 0 0 0 0-3.471 3.322 3.322 0 0 0-3.078-1.59h-.008zm0 5.143h-2.23v-3.652h2.264c1.013 0 1.833.823 1.833 1.839 0 1.015-.82 1.838-1.833 1.838l-.034-.025zm9.855-1.543a2.99 2.99 0 0 0-2.847 1.637l1.42.591a1.512 1.512 0 0 1 1.452-.788 1.535 1.535 0 0 1 1.71 1.38v.111a3.522 3.522 0 0 0-1.667-.411c-1.53 0-3.077.857-3.077 2.408.03.669.33 1.296.828 1.74.5.444 1.156.667 1.822.618a2.246 2.246 0 0 0 2.051-1.029h.051v.857h1.539v-4.123c0-1.877-1.42-2.965-3.24-2.965l-.042-.026zm-.197 5.871c-.521 0-1.248-.265-1.248-.908 0-.857.906-1.14 1.71-1.14a2.831 2.831 0 0 1 1.453.36c-.11.96-.91 1.69-1.872 1.714l-.043-.026zm9.086-5.614l-1.83 4.646h-.05l-1.898-4.646h-1.71l2.847 6.497-1.624 3.609h1.666l4.376-10.106h-1.777zm-14.368 6.857h1.598V17.433H90.46v10.714z"/>
            <path stroke="#FFF" stroke-width=".5" d="M39.193 11.902a2.327 2.327 0 0 1-.641 1.715c-.49.51-1.174.788-1.88.762a2.692 2.692 0 0 1-2.47-1.672 2.706 2.706 0 0 1 .58-2.93 2.56 2.56 0 0 1 1.89-.772c.36-.001.718.072 1.05.214.31.126.585.322.804.575l-.453.454a1.707 1.707 0 0 0-1.402-.609 1.98 1.98 0 0 0-1.432.604 1.992 1.992 0 0 0-.56 1.454 2.023 2.023 0 0 0 1.217 1.885 2.013 2.013 0 0 0 2.203-.403c.263-.285.414-.657.427-1.045h-1.855v-.617h2.487c.023.127.035.256.035.385zm3.914-2.143H40.8v1.629h2.102v.617H40.8v1.629h2.307v.634h-2.991V9.125h2.991v.634zm2.804 4.509h-.658V9.759h-1.436v-.634h3.564v.634h-1.47v4.509zm3.983 0V9.125h.658v5.143h-.658zm3.58 0h-.657V9.759H51.38v-.634h3.521v.634h-1.427v4.509zm8.103-.669a2.661 2.661 0 0 1-3.76 0 2.783 2.783 0 0 1 0-3.814 2.646 2.646 0 0 1 3.76 0 2.774 2.774 0 0 1 0 3.814zm-3.273-.428c.77.77 2.016.77 2.786 0a2.199 2.199 0 0 0 0-2.949 1.97 1.97 0 0 0-2.786 0 2.199 2.199 0 0 0 0 2.949zm4.957 1.097V9.125h.803l2.496 4.003V9.125h.658v5.143h-.683l-2.607-4.191v4.191h-.667z"/>
            <path d="M10.836 10.498a2.86 2.86 0 0 0-.007.16v-.13a2.676 2.676 0 0 1 .04-.452c.059-.316.183-.57.356-.754l-.003-.002a1.41 1.41 0 0 1 .028-.024 1.08 1.08 0 0 1 .699-.31c.364-.051.744.042 1.051.283l12.487 7.114-.003.003 4.174 2.38c.164.077.31.182.433.308.74.673.596 1.58-.433 2.169l-4.164 2.374h.002l-12.487 7.114a1.39 1.39 0 0 1-1.714.004l-.004.005-.06-.06a1.717 1.717 0 0 1-.393-1.2V10.52l-.002-.022z"/>
        </g>
    </g>
</svg>
