<svg xmlns="http://www.w3.org/2000/svg" width="16" height="16" viewBox="0 0 16 16">
    <path fill="#FF2E49" fill-rule="nonzero" d="M1.093.5h2.283c.253 0 .487.1.683.24.429-.4.995-.66 1.619-.66h6.673c1.561 0 2.595.88 2.771 2.34L16 8.24v.12c0 1.34-1.054 2.42-2.361 2.42h-3.161v2.28c0 1.12-.332 1.92-.976 2.4-1.014.76-2.38.34-2.439.32l-.41-.14v-3.22c0-2.02-2.302-2.74-2.458-2.78a1.04 1.04 0 0 1-.82.38H1.094C.488 10.02 0 9.52 0 8.9V1.6C0 1 .488.5 1.093.5zm6.712 11.92v2.3c.293.02.702.02 1.015-.22.331-.24.487-.74.487-1.46V9.56h4.352c.663 0 1.21-.56 1.21-1.24V8.3l-.918-5.7v-.02c-.039-.32-.156-1.3-1.62-1.3H5.679c-.663 0-1.21.56-1.21 1.24v6.12l.04-.16c.136.06 3.297 1 3.297 3.94zM1.15 8.84h2.147V1.68H1.15v7.16z"/>
</svg>
