<svg xmlns="http://www.w3.org/2000/svg" width="16" height="16" viewBox="0 0 16 16">
    <path fill="#63A3FF" fill-rule="nonzero" d="M2.57 13.43l1.362-.194 9.769-9.769c.01-.01.01-.03 0-.041L12.575 2.3c-.01-.01-.031-.01-.042 0l-9.768 9.767-.194 1.363zM15.116 2.012a2.031 2.031 0 0 1 0 2.87L4.977 15.018a.436.436 0 0 1-.246.123l-3.942.563a.431.431 0 0 1-.37-.124.437.437 0 0 1-.123-.37l.563-3.943a.434.434 0 0 1 .123-.246L11.119.886a2.031 2.031 0 0 1 2.87 0l1.126 1.126zm-.618 2.252l-1.152 1.152-2.761-2.761 1.152-1.152c.45-.451 1.185-.451 1.636 0l1.125 1.125c.451.451.451 1.185 0 1.636z"/>
</svg>
