<svg xmlns="http://www.w3.org/2000/svg" width="17" height="24" viewBox="0 0 17 24">
    <path fill="#9BA9BE" fill-rule="nonzero" d="M10.295.336A1.133 1.133 0 0 0 8.941.143c-.46.25-.715.77-.65 1.32.273 2.307-.32 4.684-1.584 6.357a1.583 1.583 0 0 1-.215.24c-.073-.114-.197-.376-.355-.96-.177-.65-.184-1.643-.184-1.654a.677.677 0 0 0-.42-.635.614.614 0 0 0-.707.196c-.078.095-1.884 2.34-2.452 3.264C.147 11.89-.504 15.11.383 18.112 1.419 21.618 4.658 24 8.33 24c.111 0 .223-.002.335-.007 4.07-.16 7.42-3.252 8.15-7.52.902-5.282-1.536-11.315-6.52-16.137z"/>
</svg>
