<svg xmlns="http://www.w3.org/2000/svg" width="31" height="31" viewBox="0 0 31 31">
    <g fill="none" fill-rule="evenodd">
        <circle cx="15.5" cy="15.5" r="15.5" fill="#EA4D40"/>
        <path fill="#FFF" d="M19.528 19.473c-.876.914-1.995 1.356-3.248 1.493-2.568.275-4.97-1.15-5.9-3.493a5.307 5.307 0 0 1-.297-2.907 5.546 5.546 0 0 1 4.599-4.483c1.7-.273 3.22.129 4.541 1.223.048.04.101.076.138.104l-1.637 1.618a3.17 3.17 0 0 0-1.408-.715 3.318 3.318 0 0 0-3.668 1.82c-.106.232-.19.478-.237.738-.333 1.84.833 3.541 2.707 3.842 1.507.242 2.914-.41 3.374-1.744.035-.1.06-.229.1-.336h-2.997c0-.755-.004-1.429.009-2.118 0-.046.119-.129.185-.13.349-.014.7-.01 1.049-.01 1.222 0 2.445.007 3.669-.009.28-.004.402.052.437.35.205 1.782-.127 3.41-1.416 4.757z"/>
    </g>
</svg>
