<svg xmlns="http://www.w3.org/2000/svg" width="50" height="24" viewBox="0 0 50 24">
    <g fill="none" fill-rule="evenodd">
        <path fill="#A9B8CD" d="M1 0h48a1 1 0 0 1 1 1v22a1 1 0 0 1-1 1H1a1 1 0 0 1-1-1V1a1 1 0 0 1 1-1z"/>
        <path fill="#FFF" d="M25.652 15.612c-.795.83-1.81 1.233-2.95 1.357-2.33.25-4.513-1.046-5.358-3.175a4.83 4.83 0 0 1-.268-2.643 5.039 5.039 0 0 1 4.176-4.076c1.544-.248 2.923.118 4.124 1.112.043.036.091.07.125.095l-1.487 1.471a2.878 2.878 0 0 0-1.278-.65 3.013 3.013 0 0 0-3.331 1.654c-.096.211-.173.435-.216.671-.302 1.672.757 3.22 2.459 3.493 1.369.22 2.646-.373 3.064-1.586.031-.09.054-.207.09-.305H22.08c0-.686-.004-1.3.008-1.926 0-.042.108-.116.168-.118.317-.013.635-.01.952-.01 1.11 0 2.221.008 3.332-.007.254-.003.366.047.397.32.187 1.619-.115 3.099-1.286 4.323zM33 11.427v.966h-1.749v1.715h-1.3v-1.711c-.299 0-.547.004-.81-.001-.315-.006-.626-.02-.94-.032l-.041-.943c-.004-.087.001-.156.001-.303h1.79v-.293-1.458c.4 0 .798-.005 1.187.01.043 0 .11.125.113.192.01.418 0 .835 0 1.253V11.118H33v.309z"/>
    </g>
</svg>
