<svg xmlns="http://www.w3.org/2000/svg" width="16" height="16" viewBox="0 0 16 16">
    <path fill="#FFF" fill-rule="evenodd" d="M13.844 13.778c-1.273 1.33-2.898 1.974-4.72 2.173-3.73.4-7.222-1.674-8.573-5.08a7.727 7.727 0 0 1-.43-4.23A8.062 8.062 0 0 1 6.803.121C9.274-.278 11.48.307 13.4 1.898c.07.058.147.11.2.152l-2.379 2.354c-.582-.497-1.255-.873-2.044-1.04-2.204-.473-4.43.705-5.33 2.647a4.533 4.533 0 0 0-.345 1.073c-.483 2.675 1.21 5.151 3.933 5.588 2.19.352 4.235-.596 4.903-2.537.05-.145.086-.332.144-.488H8.129c0-1.098-.005-2.079.013-3.081 0-.067.173-.187.27-.19.506-.02 1.015-.014 1.523-.014 1.776 0 3.554.01 5.331-.012.406-.006.585.075.635.51.298 2.591-.183 4.96-2.057 6.917z"/>
</svg>
