<svg xmlns="http://www.w3.org/2000/svg" width="20" height="20" viewBox="0 0 20 20">
    <g fill="none" fill-rule="evenodd">
        <path fill="#A9B8CD" d="M10 0C4.5 0 0 4.5 0 10s4.5 10 10 10 10-4.5 10-10S15.5 0 10 0z"/>
        <path fill="#FFF" d="M10.75 14h-1.5v-1.636h1.5V14zm1.964-5.707c-.143.287-.5.573-.928.93l-.429.287c-.286.215-.428.358-.571.573-.143.215-.215.43-.215.644h-1.5c0-.358.143-.716.358-1.074.214-.358.5-.572.857-.859.428-.286.714-.5.857-.716.143-.214.286-.43.286-.715 0-.358-.143-.573-.358-.788-.214-.215-.5-.286-.928-.286-.357 0-.714.143-1 .358-.286.214-.429.5-.5.859L7 7.434c.143-.787.429-1.36 1-1.79C8.571 5.214 9.214 5 10.071 5c.929 0 1.643.215 2.143.644.5.43.786 1.003.786 1.718 0 .287-.071.645-.286.931z"/>
    </g>
</svg>
