<svg xmlns="http://www.w3.org/2000/svg" width="24" height="24" viewBox="0 0 24 24">
    <g fill="none" fill-rule="evenodd">
        <path stroke="#B0B0B0" d="M12 .5C5.676.5.5 5.676.5 12S5.676 23.5 12 23.5 23.5 18.324 23.5 12 18.324.5 12 .5z"/>
        <path fill="#B0B0B0" d="M12.75 17h-1.5v-1.636h1.5V17zm1.964-5.707c-.143.287-.5.573-.928.93l-.429.287c-.286.215-.428.358-.571.573-.143.215-.215.43-.215.644h-1.5c0-.358.143-.716.358-1.074.214-.358.5-.572.857-.859.428-.286.714-.5.857-.716.143-.214.286-.43.286-.715 0-.358-.143-.573-.358-.788-.214-.215-.5-.286-.928-.286-.357 0-.714.143-1 .358-.286.214-.429.5-.5.859L9 10.434c.143-.787.429-1.36 1-1.79.571-.43 1.214-.644 2.071-.644.929 0 1.643.215 2.143.644.5.43.786 1.003.786 1.719 0 .286-.071.644-.286.93z"/>
    </g>
</svg>
