<svg xmlns="http://www.w3.org/2000/svg" width="31" height="31" viewBox="0 0 31 31">
    <g fill="none" fill-rule="evenodd">
        <circle cx="15.5" cy="15.5" r="15.5" fill="#D23E75"/>
        <g fill="#FFF" fill-rule="nonzero">
            <path d="M18.408 9.224a3.367 3.367 0 0 1 3.368 3.368v5.816a3.367 3.367 0 0 1-3.368 3.368h-5.816a3.367 3.367 0 0 1-3.368-3.368v-5.816a3.367 3.367 0 0 1 3.368-3.368h5.816zm0-1.224h-5.816A4.606 4.606 0 0 0 8 12.592v5.816A4.606 4.606 0 0 0 12.592 23h5.816A4.606 4.606 0 0 0 23 18.408v-5.816A4.606 4.606 0 0 0 18.408 8z"/>
            <path d="M19.501 10.602a.877.877 0 1 0 0 1.754.877.877 0 0 0 0-1.754zM15.541 12.817a2.706 2.706 0 1 1 .003 5.412 2.706 2.706 0 0 1-.003-5.412zm0-1.225a3.93 3.93 0 1 0 .016 7.862 3.93 3.93 0 0 0-.016-7.862z"/>
        </g>
    </g>
</svg>
