<svg xmlns="http://www.w3.org/2000/svg" width="16" height="16" viewBox="0 0 16 16">
    <g fill="#FFF" fill-rule="nonzero">
        <path d="M11.102 1.306a3.592 3.592 0 0 1 3.592 3.592v6.204a3.592 3.592 0 0 1-3.592 3.592H4.898a3.592 3.592 0 0 1-3.592-3.592V4.898a3.592 3.592 0 0 1 3.592-3.592h6.204zm0-1.306H4.898A4.913 4.913 0 0 0 0 4.898v6.204A4.913 4.913 0 0 0 4.898 16h6.204A4.913 4.913 0 0 0 16 11.102V4.898A4.913 4.913 0 0 0 11.102 0z"/>
        <path d="M12.268 2.776a.936.936 0 1 0 0 1.87.936.936 0 0 0 0-1.87zM8.044 5.138a2.887 2.887 0 1 1 .003 5.773 2.887 2.887 0 0 1-.003-5.773zm0-1.306a4.193 4.193 0 1 0 .016 8.385 4.193 4.193 0 0 0-.016-8.385z"/>
    </g>
</svg>
