<svg xmlns="http://www.w3.org/2000/svg" width="50" height="24" viewBox="0 0 50 24">
  <title>ins</title>
  <rect width="50" height="24" rx="1" ry="1" style="fill: #a9b8cd"/>
  <g>
    <path d="M709.06,453.5a3.19,3.19,0,0,0-2.5-3,9.55,9.55,0,0,0-1.93-.16c-1.53,0-3.07,0-4.61.06a3.12,3.12,0,0,0-3,2.48,9.07,9.07,0,0,0-.16,1.95c0,1.53,0,3.06.05,4.59a3.21,3.21,0,0,0,3.09,3.09c1,.07,2,.06,3,.09s2,0,3-.09a3.17,3.17,0,0,0,2.76-1.84,4,4,0,0,0,.37-1.75c0-1.32,0-2.64,0-4C709.12,454.49,709.1,454,709.06,453.5ZM708,459.23a2.14,2.14,0,0,1-2.21,2.2c-1.83.05-3.66.05-5.48,0a2.11,2.11,0,0,1-2.21-2.2c0-1.84,0-3.69,0-5.53a2.06,2.06,0,0,1,1.07-1.86,3.25,3.25,0,0,1,1.62-.35c1.56,0,3.12,0,4.68,0a3.62,3.62,0,0,1,1.13.19,2.06,2.06,0,0,1,1.4,2c.06.93.06,1.87.08,2.79S708,458.32,708,459.23Z" transform="translate(-678 -444.5)" style="fill: #fff"/>
    <path d="M707,453.21a.74.74,0,1,1-.75-.74A.73.73,0,0,1,707,453.21Z" transform="translate(-678 -444.5)" style="fill: #fff"/>
    <path d="M703,453.32a3.16,3.16,0,1,0,3.16,3.17A3.17,3.17,0,0,0,703,453.32Zm0,5.2a2,2,0,1,1,.07-4.07,2,2,0,0,1,2,2.08A2,2,0,0,1,703,458.52Z" transform="translate(-678 -444.5)" style="fill: #fff"/>
  </g>
</svg>
