<svg xmlns="http://www.w3.org/2000/svg" width="120" height="40" viewBox="0 0 120 40">
    <g fill="none" fill-rule="evenodd">
        <rect width="120" height="40" fill="#6A7A91" rx="2"/>
        <path fill="#FFF" fill-rule="nonzero" d="M41.875 27.269h-4.733l-1.137 3.356H34l4.483-12.418h2.083l4.484 12.418h-2.04l-1.135-3.356zm-4.243-1.55h3.752l-1.85-5.446h-.052l-1.85 5.447zm17.1.38c0 2.813-1.505 4.62-3.778 4.62a3.07 3.07 0 0 1-2.849-1.583h-.043v4.484h-1.858V21.571h1.799v1.506h.034a3.212 3.212 0 0 1 2.883-1.6c2.298 0 3.812 1.816 3.812 4.622zm-1.91 0c0-1.833-.947-3.038-2.392-3.038-1.42 0-2.375 1.23-2.375 3.038 0 1.824.955 3.046 2.375 3.046 1.445 0 2.392-1.197 2.392-3.046zm11.876 0c0 2.813-1.507 4.62-3.78 4.62a3.07 3.07 0 0 1-2.848-1.583h-.043v4.484H56.17V21.571h1.799v1.506h.034a3.212 3.212 0 0 1 2.883-1.6c2.298 0 3.813 1.816 3.813 4.622zm-1.91 0c0-1.833-.948-3.038-2.393-3.038-1.42 0-2.375 1.23-2.375 3.038 0 1.824.955 3.046 2.375 3.046 1.445 0 2.392-1.197 2.392-3.046zm8.495 1.066c.137 1.232 1.334 2.04 2.968 2.04 1.567 0 2.694-.808 2.694-1.919 0-.964-.68-1.54-2.29-1.936l-1.609-.388c-2.28-.55-3.338-1.617-3.338-3.348 0-2.142 1.867-3.614 4.517-3.614 2.625 0 4.424 1.472 4.484 3.614h-1.876c-.112-1.239-1.136-1.987-2.633-1.987s-2.522.757-2.522 1.858c0 .878.655 1.395 2.255 1.79l1.368.336c2.548.603 3.606 1.626 3.606 3.443 0 2.323-1.85 3.778-4.793 3.778-2.754 0-4.614-1.42-4.734-3.667h1.903zm11.636-7.736v2.142h1.722v1.472H82.92v4.991c0 .776.345 1.137 1.102 1.137.204-.004.408-.018.611-.043v1.463c-.34.063-.686.092-1.032.086-1.833 0-2.548-.689-2.548-2.445v-5.189h-1.316v-1.472h1.316V19.43h1.867zm2.718 6.67c0-2.849 1.678-4.639 4.294-4.639 2.625 0 4.295 1.79 4.295 4.639 0 2.856-1.661 4.638-4.295 4.638-2.633 0-4.294-1.782-4.294-4.638zm6.696 0c0-1.954-.896-3.108-2.402-3.108-1.506 0-2.401 1.162-2.401 3.108 0 1.962.895 3.106 2.401 3.106 1.506 0 2.402-1.144 2.402-3.106zm3.425-4.528h1.773v1.541h.043a2.16 2.16 0 0 1 2.177-1.635c.215-.001.428.022.637.069v1.738a2.598 2.598 0 0 0-.835-.112 1.873 1.873 0 0 0-1.936 2.083v5.37h-1.859v-9.054zm13.199 6.395c-.25 1.643-1.851 2.771-3.899 2.771-2.634 0-4.268-1.764-4.268-4.595 0-2.84 1.643-4.682 4.19-4.682 2.505 0 4.08 1.72 4.08 4.466v.637h-6.394v.112a2.358 2.358 0 0 0 2.435 2.564 2.048 2.048 0 0 0 2.09-1.273h1.766zm-6.283-2.702h4.527a2.177 2.177 0 0 0-2.221-2.298 2.292 2.292 0 0 0-2.306 2.298zM37.826 8.731a2.64 2.64 0 0 1 2.808 2.965c0 1.906-1.03 3.002-2.808 3.002h-2.155V8.73h2.155zm-1.228 5.123h1.125a1.876 1.876 0 0 0 1.967-2.146 1.881 1.881 0 0 0-1.967-2.134h-1.125v4.28zm5.083-1.41a2.133 2.133 0 1 1 4.247 0 2.134 2.134 0 1 1-4.247 0zm3.333 0c0-.976-.439-1.547-1.208-1.547-.773 0-1.207.571-1.207 1.547 0 .984.434 1.55 1.207 1.55.77 0 1.208-.57 1.208-1.55zm6.56 2.254h-.923l-.93-3.317h-.07l-.927 3.317h-.913l-1.242-4.503h.902l.806 3.436h.067l.926-3.436h.852l.926 3.436h.07l.803-3.436h.889l-1.237 4.503zm2.28-4.503h.855v.715h.066c.231-.527.771-.849 1.344-.802a1.465 1.465 0 0 1 1.559 1.675v2.915h-.889v-2.692c0-.724-.314-1.084-.972-1.084a1.033 1.033 0 0 0-1.075 1.141v2.635h-.888v-4.503zm5.24-1.758h.888v6.26h-.888v-6.26zm2.124 4.007a2.133 2.133 0 1 1 4.247 0 2.134 2.134 0 1 1-4.247 0zm3.333 0c0-.976-.439-1.547-1.208-1.547-.773 0-1.207.571-1.207 1.547 0 .984.434 1.55 1.207 1.55.77 0 1.208-.57 1.208-1.55zm1.85.98c0-.81.603-1.278 1.675-1.344l1.22-.07v-.389c0-.475-.315-.744-.922-.744-.497 0-.84.182-.939.5h-.86c.09-.773.818-1.27 1.84-1.27 1.128 0 1.765.563 1.765 1.514v3.077h-.855v-.633h-.07c-.291.462-.808.732-1.353.707a1.36 1.36 0 0 1-1.501-1.348zm2.894-.384v-.377l-1.1.07c-.62.042-.9.253-.9.65 0 .405.351.64.834.64a1.061 1.061 0 0 0 1.166-.983zm2.053-.596c0-1.423.732-2.324 1.87-2.324a1.484 1.484 0 0 1 1.38.79h.067V8.437h.888v6.26h-.851v-.71h-.07a1.563 1.563 0 0 1-1.415.785c-1.145 0-1.869-.901-1.869-2.328zm.918 0c0 .955.45 1.53 1.203 1.53.75 0 1.212-.583 1.212-1.526 0-.938-.468-1.53-1.212-1.53-.748 0-1.203.58-1.203 1.526zm6.964 0a2.133 2.133 0 1 1 4.247 0 2.134 2.134 0 1 1-4.247 0zm3.333 0c0-.976-.438-1.547-1.208-1.547-.772 0-1.207.571-1.207 1.547 0 .984.435 1.55 1.207 1.55.77 0 1.208-.57 1.208-1.55zm2.106-2.25h.856v.716h.066c.231-.527.77-.849 1.344-.802a1.465 1.465 0 0 1 1.559 1.675v2.915h-.889v-2.692c0-.724-.314-1.084-.972-1.084a1.033 1.033 0 0 0-1.075 1.141v2.635h-.889v-4.503zm8.846-1.12v1.141h.976v.749h-.976v2.315c0 .472.195.679.637.679.113 0 .226-.008.339-.021v.74c-.16.029-.322.044-.484.046-.988 0-1.381-.348-1.381-1.216v-2.543h-.715v-.749h.715V9.074h.89zm2.19-.637h.88v2.481h.07a1.386 1.386 0 0 1 1.374-.806 1.483 1.483 0 0 1 1.55 1.679v2.907h-.889V12.01c0-.72-.335-1.084-.963-1.084a1.052 1.052 0 0 0-1.134 1.142v2.63h-.888V8.437zm9.056 5.045a1.828 1.828 0 0 1-1.95 1.303 2.045 2.045 0 0 1-2.081-2.325 2.077 2.077 0 0 1 2.076-2.352c1.253 0 2.009.856 2.009 2.27v.31h-3.18v.05a1.19 1.19 0 0 0 1.2 1.29 1.08 1.08 0 0 0 1.07-.546h.856zm-3.126-1.451h2.275a1.086 1.086 0 0 0-1.109-1.167 1.152 1.152 0 0 0-1.166 1.167zM24.997 19.89a5.146 5.146 0 0 1 2.45-4.318 5.268 5.268 0 0 0-4.15-2.244c-1.746-.183-3.44 1.045-4.33 1.045-.906 0-2.276-1.027-3.752-.997a5.527 5.527 0 0 0-4.65 2.837c-2.012 3.482-.512 8.6 1.415 11.414.963 1.378 2.09 2.918 3.564 2.863 1.442-.06 1.981-.92 3.722-.92 1.725 0 2.23.92 3.734.886 1.548-.026 2.523-1.385 3.453-2.776a11.4 11.4 0 0 0 1.58-3.216 4.973 4.973 0 0 1-3.036-4.575zm-2.84-8.413a5.067 5.067 0 0 0 1.158-3.63 5.155 5.155 0 0 0-3.335 1.726 4.821 4.821 0 0 0-1.19 3.495 4.263 4.263 0 0 0 3.366-1.591z"/>
    </g>
</svg>
