<svg xmlns="http://www.w3.org/2000/svg" width="16" height="16" viewBox="0 0 16 16">
    <path fill="#35CF66" fill-rule="nonzero" d="M1.093 15.5h2.283c.253 0 .487-.1.683-.24.429.4.995.66 1.619.66h6.673c1.561 0 2.595-.88 2.771-2.34L16 7.76v-.12c0-1.34-1.054-2.42-2.361-2.42h-3.161V2.94c0-1.12-.332-1.92-.976-2.4C8.488-.22 7.122.2 7.063.22l-.41.14v3.22c0 2.02-2.302 2.74-2.458 2.78a1.04 1.04 0 0 0-.82-.38H1.094C.488 5.98 0 6.48 0 7.1v7.3c0 .6.488 1.1 1.093 1.1zM7.805 3.58v-2.3c.293-.02.702-.02 1.015.22.331.24.487.74.487 1.46v3.48h4.352c.663 0 1.21.56 1.21 1.24v.02l-.918 5.7v.02c-.039.32-.156 1.3-1.62 1.3H5.679c-.663 0-1.21-.56-1.21-1.24V7.36l.04.16c.136-.06 3.297-1 3.297-3.94zM1.15 7.16h2.147v7.16H1.15V7.16z"/>
</svg>
