<svg xmlns="http://www.w3.org/2000/svg" width="50" height="24" viewBox="0 0 50 24">
  <title>Untitled-1</title>
  <path d="M748,503v22a1,1,0,0,1-1,1H699a1,1,0,0,1-1-1V503a1,1,0,0,1,1-1h48A1,1,0,0,1,748,503Z" transform="translate(-697.97 -501.95)" style="fill: #a9b8cd"/>
  <g>
    <path d="M719.67,509.71a1.3,1.3,0,0,1-1.1,1,2.38,2.38,0,0,1-.34,0,1.44,1.44,0,0,1-1.39-.77,1.39,1.39,0,0,1,1.13-2,1.58,1.58,0,0,1,1.26.32A1.33,1.33,0,0,1,719.67,509.71Z" transform="translate(-697.97 -501.95)" style="fill: #fff"/>
    <path d="M729.25,514.94v5h-2.7v-4.49a2.37,2.37,0,0,0-.19-1,1.17,1.17,0,0,0-1.17-.72,1.45,1.45,0,0,0-1.4,1.06,2.42,2.42,0,0,0-.06.66c0,1.42,0,2.85,0,4.27v.16H721v-8.08h2.68V513c0-.06.07-.08.09-.11a2.65,2.65,0,0,1,2.36-1.21,3,3,0,0,1,1.61.42,2.68,2.68,0,0,1,1.12,1.32,4.4,4.4,0,0,1,.32,1.39Z" transform="translate(-697.97 -501.95)" style="fill: #fff"/>
    <path d="M719.54,511.85v8.08H717c-.1,0-.13,0-.13-.13,0-2.61,0-5.23,0-7.84v-.12Z" transform="translate(-697.97 -501.95)" style="fill: #fff"/>
  </g>
</svg>
