<svg xmlns="http://www.w3.org/2000/svg" width="31" height="31" viewBox="0 0 31 31">
    <g fill="none" fill-rule="evenodd">
        <circle cx="15.5" cy="15.5" r="15.5" fill="#3E425F"/>
        <g fill="#FFF" fill-rule="nonzero">
            <path d="M13.386 14.587c.567-.567 1.555-.567 2.12 0l.531.53a.75.75 0 1 0 1.06-1.06l-.529-.53a2.979 2.979 0 0 0-2.122-.88 2.98 2.98 0 0 0-2.12.878l-3.449 3.449a3.002 3.002 0 0 0 0 4.242l.53.53c.568.567 1.32.879 2.123.879.8 0 1.554-.313 2.12-.879l1.63-1.629a.748.748 0 0 0 0-1.06.748.748 0 0 0-1.061 0l-1.63 1.629c-.566.567-1.553.567-2.12 0l-.531-.53a1.502 1.502 0 0 1 0-2.122l3.448-3.447z"/>
            <path d="M18.159 17.239l3.447-3.449c.567-.566.879-1.32.879-2.12 0-.802-.312-1.555-.88-2.12l-.53-.532a2.98 2.98 0 0 0-2.12-.88c-.802 0-1.555.313-2.122.88l-1.488 1.489a.749.749 0 1 0 1.06 1.06l1.489-1.489a1.49 1.49 0 0 1 1.06-.44c.401 0 .777.157 1.061.44l.53.531c.284.283.44.66.44 1.06 0 .401-.156.778-.44 1.06l-3.448 3.448c-.566.567-1.554.567-2.12 0a.75.75 0 1 0-1.061 1.06 2.98 2.98 0 0 0 2.121.88c.802 0 1.555-.313 2.122-.878z"/>
        </g>
    </g>
</svg>
