<svg xmlns="http://www.w3.org/2000/svg" width="82" height="82" viewBox="0 0 82 82">
    <g fill="none" fill-rule="evenodd">
        <path fill="#0A68EF" fill-rule="nonzero" d="M19.463 8.45c-.782-1.02-2.27-1.241-3.333-.496-1.064.746-1.307 2.18-.545 3.214l7.824 10.387c.782 1.02 2.27 1.24 3.333.495 1.063-.746 1.306-2.18.544-3.213L19.463 8.449zm-17.2 22.833l12.667 3.972c.24.077.49.116.743.116 1.181.003 2.188-.825 2.374-1.951.185-1.126-.507-2.214-1.631-2.565L3.761 26.888a2.461 2.461 0 0 0-2.346.473 2.266 2.266 0 0 0-.749 2.197c.175.81.784 1.467 1.597 1.725zm15.67 16.947c-.409-1.215-1.76-1.88-3.019-1.485L2.263 50.717c-1.124.35-1.816 1.438-1.63 2.564.185 1.126 1.192 1.954 2.373 1.95.252.001.503-.038.743-.115L16.4 51.148A2.376 2.376 0 0 0 17.803 50c.29-.548.344-1.185.146-1.77h-.015zm5.46 12.215l-7.804 10.387c-.762 1.034-.519 2.468.545 3.214 1.064.745 2.55.524 3.333-.495l7.82-10.388a2.247 2.247 0 0 0 .266-2.312 2.391 2.391 0 0 0-1.95-1.367 2.431 2.431 0 0 0-2.194.96h-.016zM41 64.4c-1.323 0-2.396 1.036-2.396 2.313v12.844c0 1.278 1.073 2.313 2.396 2.313s2.396-1.035 2.396-2.313V66.714c0-1.277-1.073-2.313-2.396-2.313z"/>
        <path fill="#FFF" d="M43.396 2.442v12.844c0 1.277-1.073 2.313-2.396 2.313s-2.396-1.036-2.396-2.313V2.442c0-1.278 1.073-2.313 2.396-2.313s2.396 1.035 2.396 2.313zM58.591 60.445c-.782-1.02-2.27-1.24-3.333-.495-1.063.746-1.306 2.18-.544 3.213l7.819 10.388c.782 1.02 2.27 1.24 3.333.495 1.064-.746 1.307-2.18.545-3.214l-7.82-10.387zM79.737 50.717L67.07 46.745c-1.25-.368-2.574.298-2.978 1.498-.404 1.199.261 2.49 1.496 2.902l12.651 3.967c.24.077.49.116.743.116 1.179.003 2.184-.821 2.372-1.945.188-1.123-.498-2.211-1.617-2.566zM64.066 33.77c.32.953 1.24 1.6 2.277 1.6.252 0 .503-.038.743-.115l12.651-3.972a2.347 2.347 0 0 0 1.642-1.718 2.266 2.266 0 0 0-.75-2.223 2.461 2.461 0 0 0-2.374-.458l-12.667 3.971c-1.258.396-1.946 1.7-1.537 2.915h.015zM56.65 22.492a2.425 2.425 0 0 0 1.941-.952l7.82-10.388c.762-1.034.519-2.467-.545-3.213-1.064-.745-2.55-.525-3.333.495l-7.815 10.403a2.247 2.247 0 0 0-.196 2.406 2.407 2.407 0 0 0 2.129 1.265v-.016z"/>
    </g>
</svg>
