<svg xmlns="http://www.w3.org/2000/svg" width="14" height="16" viewBox="0 0 14 16">
    <path fill="#63A3FF" fill-rule="evenodd" d="M6.3 15.686c-.1-.1-4.2-3.696-4.2-3.796C.7 10.69 0 8.892 0 6.994 0 3.097 3.1 0 7 0s7 3.097 7 6.994c0 1.898-.7 3.697-2.1 4.996-.1.1-4.1 3.696-4.2 3.796-.4.3-1 .3-1.4-.1zm-2.7-4.995c0-.1 0-.1 0 0-1-1-1.6-2.298-1.6-3.697 0-2.798 2.2-4.896 5-4.896s5 2.198 5 4.996c0 1.399-.6 2.598-1.6 3.597L7 13.688l-3.4-2.997zm4.814-5.11a2.001 2.001 0 0 0-2.828 0 1.997 1.997 0 0 0 0 2.826c.78.78 2.047.78 2.828 0a1.997 1.997 0 0 0 0-2.826z"/>
</svg>
