<svg xmlns="http://www.w3.org/2000/svg" width="24" height="23" viewBox="0 0 24 23">
    <path fill="#FFF" fill-rule="nonzero" d="M20.835 5.296h-.754V.548a.55.55 0 0 0-.27-.475.53.53 0 0 0-.538 0c-.073.042-7.208 4.19-10.505 4.19H1.735C.777 4.262 0 5.052 0 6.028v6.09c0 .928.707 1.697 1.616 1.76l2.573 8.103A1.32 1.32 0 0 0 5.43 23c.06 0 .121-.005.18-.014a6.737 6.737 0 0 0 2.964-.921 1.71 1.71 0 0 0 .471-.332.546.546 0 0 0 .057-.069 1.757 1.757 0 0 0 0-2.024c-.315-.516-1.172-2.609-1.22-5.76h.92c3.508.005 10.409 4.147 10.47 4.202a.53.53 0 0 0 .538 0 .55.55 0 0 0 .27-.472v-5.868h.755C22.583 11.742 24 10.3 24 8.52c0-1.78-1.417-3.223-3.165-3.223zM8.175 20.238l.016.024c.156.213.166.5.027.725a.955.955 0 0 1-.186.112l-.059.036c-.21.142-1.01.617-2.502.762h-.038c-.094.017-.191-.077-.234-.236l-2.443-7.776h4.04c.043 3.086.846 5.478 1.393 6.353h-.014zm.065-7.45H1.735a.663.663 0 0 1-.658-.67v-6.09c0-.369.295-.669.658-.669h6.518l-.013 7.429zm10.763-7.492v11.357c-1.885-1.067-6.567-3.566-9.697-3.84V5.331c2.985-.294 7.782-2.798 9.697-3.84v3.804zm1.819 5.35h-.741V6.393h.754c1.153 0 2.088.951 2.088 2.125s-.935 2.126-2.088 2.126h-.013z"/>
</svg>
