<svg xmlns="http://www.w3.org/2000/svg" width="22" height="22" viewBox="0 0 22 22">
    <path fill="#FFF" fill-rule="nonzero" d="M21.034 1.3l-.003-.006a.761.761 0 0 0-.023-.05c-.008-.017-.018-.033-.028-.049l-.006-.008a.307.307 0 0 0-.027-.036l-.009-.011-.037-.041-.042-.038-.008-.006a.39.39 0 0 0-.041-.03l-.004-.003a.594.594 0 0 0-.552-.055L1.879 8.357A1.574 1.574 0 0 0 .878 9.805c-.015.65.345 1.221.937 1.49l6.116 2.774 2.774 6.116c.264.581.818.938 1.453.938l.037-.001a1.573 1.573 0 0 0 1.447-1.001l7.392-18.375a.456.456 0 0 0 .018-.052l.001-.003a.596.596 0 0 0-.019-.391zM2.311 10.201a.383.383 0 0 1-.233-.37.384.384 0 0 1 .249-.36l15.651-6.296-9.724 9.724-5.943-2.698zm10.218 9.473a.384.384 0 0 1-.36.249c-.094-.011-.273-.019-.37-.233l-2.698-5.943 9.724-9.724-6.296 15.651z"/>
</svg>
