<svg xmlns="http://www.w3.org/2000/svg" width="16" height="16" viewBox="0 0 16 16">
    <g fill="none" fill-rule="nonzero">
        <path fill="#B9C7DA" d="M14.055 1.775a5.608 5.608 0 0 0-3.99-1.652 5.608 5.608 0 0 0-3.99 1.652 5.608 5.608 0 0 0-1.653 3.99c0 .783.158 1.54.459 2.237l-4.22 4.22a.438.438 0 0 0-.126.26L.3 14.6c-.04.348.08.69.33.94a1.141 1.141 0 0 0 .94.33l2.113-.242a.438.438 0 0 0 .363-.29l.45-1.298 1.303-.455a.435.435 0 0 0 .267-.266l.455-1.294 1.151-.329a.438.438 0 0 0 .293-.276l.128-.365a5.646 5.646 0 0 0 1.973.354 5.608 5.608 0 0 0 3.991-1.653 5.65 5.65 0 0 0 0-7.98z"/>
        <path fill="#FFF" d="M8.839 4.271c-.75.75-.75 1.971 0 2.721.375.375.867.562 1.36.562a1.92 1.92 0 0 0 1.361-.562c.75-.75.75-1.97 0-2.72-.75-.75-1.97-.751-2.721 0z"/>
    </g>
</svg>
