<svg xmlns="http://www.w3.org/2000/svg" width="30" height="30" viewBox="0 0 30 30">
    <g fill="none" fill-rule="evenodd">
        <circle cx="15" cy="15" r="15" fill="#3B5475"/>
        <g fill-rule="nonzero" stroke="#FFF">
            <path d="M11.238 22.325h.004a2.511 2.511 0 0 0 1.608-.558l.134-.113a3.25 3.25 0 0 1 4.041.008l.123.103c.447.366 1.019.565 1.614.56 1.273 0 2.283-.878 2.283-1.919v-.43a2.177 2.177 0 0 0-.817-1.66 8.636 8.636 0 0 1-2.182-2.692l-.811-1.578c-.38-.743-1.258-1.237-2.235-1.237-.977 0-1.855.494-2.235 1.235l-.532 1.04a18.556 18.556 0 0 1-2.72 3.919c-.356.39-.554.89-.558 1.403 0 1.04 1.01 1.919 2.283 1.919zM10.864 13.01v-.7c0-.882-.75-1.604-1.682-1.604-.933 0-1.682.722-1.682 1.603v.701c0 .881.749 1.603 1.682 1.603.933 0 1.682-.722 1.682-1.603zM16.682 8.804v-.7c0-.882-.75-1.604-1.682-1.604-.933 0-1.682.722-1.682 1.603v.701c0 .881.75 1.603 1.682 1.603.933 0 1.682-.722 1.682-1.603zM22.5 12.31v-.702c0-.88-.749-1.603-1.682-1.603-.933 0-1.682.722-1.682 1.603v.701c0 .881.75 1.603 1.682 1.603.933 0 1.682-.722 1.682-1.603z"/>
        </g>
    </g>
</svg>
