<svg xmlns="http://www.w3.org/2000/svg" width="18" height="18" viewBox="0 0 18 18">
    <path fill="#FFF" fill-rule="nonzero" d="M14.97 10.942h-1.769a.492.492 0 0 0-.451.297l-.757 1.768a.408.408 0 0 1-.493.221c-3.32-.962-5.868-3.78-6.491-7.18-.03-.162.07-.331.238-.403l1.956-.837a.492.492 0 0 0 .298-.452V2.587a2.262 2.262 0 0 0-2.26-2.26H2.445c-.638 0-1.201.44-1.341 1.047a13.287 13.287 0 0 0-.335 2.982c0 .866.075 1.672.23 2.461A13.342 13.342 0 0 0 10.79 17.26c1.087.274 2.195.413 3.296.413.662 0 1.332-.051 1.993-.15a1.373 1.373 0 0 0 1.151-1.36V13.2a2.262 2.262 0 0 0-2.26-2.26z"/>
</svg>
