<svg xmlns="http://www.w3.org/2000/svg" width="30" height="30" viewBox="0 0 30 30">
    <g fill="none" fill-rule="evenodd">
        <circle cx="15" cy="15" r="15" fill="#3B5475"/>
        <path fill="#FFF" d="M13.094 11.571h1.524v1.524h-1.524zM16.142 11.571h1.524v1.524h-1.524zM13.094 14.619h1.524v1.524h-1.524zM16.142 14.619h1.524v1.524h-1.524zM10.047 17.667h1.524v1.524h-1.524zM13.094 17.667h1.524v1.524h-1.524zM16.142 17.667h1.524v1.524h-1.524zM19.19 17.667h1.524v1.524H19.19z"/>
        <path fill-rule="nonzero" stroke="#FFF" d="M22.237 15.881h-2.785V9.286a.262.262 0 0 0-.262-.262h-2.024V7.762a.262.262 0 0 0-.262-.262h-3.048a.262.262 0 0 0-.262.262v1.262h-2.023a.262.262 0 0 0-.262.262v6.595H8.523a.262.262 0 0 0-.262.262v6.095c0 .145.118.262.262.262h13.714a.262.262 0 0 0 .262-.262v-6.095a.262.262 0 0 0-.262-.262z"/>
    </g>
</svg>
