<svg xmlns="http://www.w3.org/2000/svg" width="30" height="30" viewBox="0 0 30 30">
    <g fill="none" fill-rule="evenodd">
        <circle cx="15" cy="15" r="15" fill="#9BA9BE"/>
        <path fill="#FFF" fill-rule="nonzero" d="M14.857 7c-4.497 0-8.143 3.582-8.143 8H4l3.52 3.458.063.124L11.238 15H8.524c0-3.436 2.835-6.222 6.333-6.222S21.19 11.564 21.19 15c0 3.436-2.835 6.222-6.333 6.222a6.339 6.339 0 0 1-4.47-1.83l-1.284 1.261A8.121 8.121 0 0 0 14.857 23C19.354 23 23 19.418 23 15s-3.646-8-8.143-8z"/>
    </g>
</svg>
