<svg xmlns="http://www.w3.org/2000/svg" width="30" height="30" viewBox="0 0 30 30">
    <g fill="none" fill-rule="evenodd">
        <circle cx="15" cy="15" r="15" fill="#0A68EF"/>
        <path fill="#FFF" fill-rule="nonzero" d="M12.93 8.004a.544.544 0 0 0-.278.126l-5.457 4.584a.552.552 0 0 0 0 .842l5.457 4.584a.542.542 0 0 0 .576.074.55.55 0 0 0 .316-.493v-1.827c1.23.012 5.462.248 8.555 2.973.185.16.453.177.657.042a.552.552 0 0 0 .218-.626c-1.528-4.746-6.12-6.846-9.43-7.758v-1.97a.552.552 0 0 0-.183-.416.543.543 0 0 0-.43-.135z"/>
    </g>
</svg>
