<svg xmlns="http://www.w3.org/2000/svg" width="30" height="30" viewBox="0 0 30 30">
    <g fill="none" fill-rule="evenodd">
        <circle cx="15" cy="15" r="15" fill="#3B5475"/>
        <path stroke="#FFF" stroke-linecap="round" stroke-linejoin="round" d="M24.741 16.095l-1.691 1.586a.815.815 0 0 0-.245.746l.429 2.268a.82.82 0 0 1-.707.963l-2.308.296a.826.826 0 0 0-.641.462l-.996 2.084a.83.83 0 0 1-1.143.369l-2.043-1.107a.833.833 0 0 0-.792 0l-2.043 1.107a.83.83 0 0 1-1.143-.369l-.996-2.084a.826.826 0 0 0-.64-.462l-2.31-.296a.82.82 0 0 1-.706-.963l.428-2.268a.815.815 0 0 0-.244-.746l-1.691-1.586a.814.814 0 0 1 0-1.19l1.691-1.586a.815.815 0 0 0 .245-.746l-.429-2.268a.82.82 0 0 1 .707-.963l2.308-.296a.826.826 0 0 0 .641-.462l.996-2.084a.83.83 0 0 1 1.143-.369l2.043 1.107a.833.833 0 0 0 .792 0l2.043-1.107a.83.83 0 0 1 1.143.369l.996 2.084c.12.252.362.426.64.462l2.31.296c.47.06.793.5.706.963l-.428 2.268a.815.815 0 0 0 .244.746l1.691 1.586a.814.814 0 0 1 0 1.19z"/>
        <path fill="#FFF" fill-rule="nonzero" d="M10.54 13.281c0-.587.15-1.086.447-1.498.299-.411.73-.617 1.296-.617.521 0 .952.184 1.294.553.341.368.512.91.512 1.624 0 .696-.173 1.231-.518 1.607-.345.376-.77.564-1.276.564-.502 0-.92-.185-1.254-.555-.334-.37-.5-.93-.5-1.678zm1.772-1.42a.768.768 0 0 0-.631.326c-.168.217-.252.615-.252 1.195 0 .528.085.899.255 1.114.17.215.379.322.628.322a.773.773 0 0 0 .636-.325c.168-.217.252-.613.252-1.19 0-.53-.085-.904-.254-1.119a.778.778 0 0 0-.634-.322zm.005 7.973l4.54-8.668h.826l-4.522 8.668h-.844zm3.589-2.233c0-.59.149-1.091.447-1.5.298-.41.732-.615 1.301-.615.52 0 .952.184 1.293.553.342.368.513.91.513 1.624 0 .695-.173 1.231-.518 1.607a1.67 1.67 0 0 1-1.282.564c-.502 0-.92-.186-1.254-.558-.334-.372-.5-.93-.5-1.675zm1.777-1.42a.773.773 0 0 0-.637.326c-.168.217-.252.615-.252 1.195 0 .524.085.894.255 1.11.17.218.379.326.628.326.26 0 .474-.108.642-.325.168-.217.252-.614.252-1.19 0-.53-.085-.904-.255-1.119a.778.778 0 0 0-.633-.322z"/>
    </g>
</svg>
