<svg xmlns="http://www.w3.org/2000/svg" width="30" height="30" viewBox="0 0 30 30">
    <g fill="none" fill-rule="evenodd">
        <circle cx="15" cy="15" r="15" fill="#3B5475"/>
        <path fill-rule="nonzero" stroke="#FFF" d="M16.34 7.604v3.219H13.7l-.006-.494-.032-2.776c-1.32.513-2.182 1.75-2.162 3.127-.006 1.247.716 2.396 1.876 2.976l.276.138v7.43c0 .7.6 1.276 1.348 1.276.75 0 1.349-.576 1.349-1.276v-7.39l.276-.139c1.16-.58 1.881-1.729 1.875-2.975-.01-1.359-.86-2.58-2.16-3.116zm-2.68-.244v-.006a.16.16 0 0 0 0 .006zm2.847-.763z"/>
    </g>
</svg>
