<svg xmlns="http://www.w3.org/2000/svg" width="16" height="16" viewBox="0 0 16 16">
    <path fill="none" fill-rule="evenodd" stroke="#FFF" stroke-width="2" d="M15.244 5.622l.002-.001-.002.001zm-1.29 1.135l-3.56-.254a1.28 1.28 0 0 1-1.104-.82L8 2.3 6.712 5.682a1.278 1.278 0 0 1-1.107.821l-3.56.254 2.787 2.454c.358.313.513.799.402 1.26l-.87 3.642 2.928-1.936c.429-.286.987-.286 1.414-.002l2.93 1.938-.87-3.64c-.11-.463.044-.95.4-1.26l2.789-2.456zM.762 5.627a.704.704 0 0 0-.004-.004l.004.004zm12.391 9.489l.013.009a.723.723 0 0 0-.013-.009zm-.663-4.403l-.004.003a.723.723 0 0 0 .004-.003zm-7.03-6.205h.01-.01z"/>
</svg>
