<svg xmlns="http://www.w3.org/2000/svg" width="50" height="24" viewBox="0 0 50 24">
    <g fill="none" fill-rule="evenodd">
        <path fill="#A9B8CD" d="M1 0h48a1 1 0 0 1 1 1v22a1 1 0 0 1-1 1H1a1 1 0 0 1-1-1V1a1 1 0 0 1 1-1z"/>
        <path fill="#FFF" fill-rule="nonzero" d="M19.848 7.526c1.088 1.287 3.037 2.501 5.652 2.632-.144-.56-.158-2.076.982-2.706.51-.282.993-.452 1.562-.452.714 0 1.3.228 1.925.783.508-.069 1.456-.448 1.681-.598-.146.524-.733 1.196-1.156 1.355.389-.001 1.244-.217 1.506-.345-.364.544-.998 1.065-1.346 1.281.403 3.353-2.806 7.52-7.415 7.524A8.828 8.828 0 0 1 19 15.947c1.473.16 3.05-.283 3.957-1.052-1.143-.024-2.3-.741-2.827-1.843.573.166 1.1.25 1.413 0-.533-.055-2.26-.936-2.26-2.643.397.306.968.622 1.413.538-.727-.4-1.784-1.928-.848-3.42z"/>
    </g>
</svg>
