<svg xmlns="http://www.w3.org/2000/svg" width="24" height="16" viewBox="0 0 24 16">
    <path fill="#0A68EF" fill-rule="nonzero" d="M21.057 0H2.943A2.94 2.94 0 0 0 0 2.93v10.14A2.94 2.94 0 0 0 2.943 16h18.114A2.94 2.94 0 0 0 24 13.07V2.93A2.94 2.94 0 0 0 21.057 0zm1.585 13.07c0 .87-.713 1.578-1.585 1.578H2.943a1.584 1.584 0 0 1-1.585-1.578V2.93c0-.87.713-1.578 1.585-1.578h18.114c.872 0 1.585.708 1.585 1.578v10.14zm-8.943-9.126c-.586 0-1.166.135-1.704.378a4.042 4.042 0 0 0-1.694-.378c-2.247 0-4.076 1.82-4.076 4.056 0 2.237 1.827 4.056 4.076 4.056.607 0 1.177-.14 1.694-.378a4.117 4.117 0 0 0 1.704.378c2.247 0 4.076-1.82 4.076-4.056 0-2.237-1.829-4.056-4.076-4.056zm-3.398 6.76A2.714 2.714 0 0 1 7.584 8c0-1.49 1.219-2.704 2.717-2.704A2.714 2.714 0 0 1 13.018 8c0 1.49-1.22 2.704-2.717 2.704zm3.398 0c-.116 0-.23-.03-.345-.045A4.012 4.012 0 0 0 14.376 8a4.012 4.012 0 0 0-1.022-2.66c.115-.014.229-.044.345-.044A2.714 2.714 0 0 1 16.416 8c0 1.49-1.219 2.704-2.717 2.704z"/>
</svg>
