<?xml version="1.0" encoding="utf-8"?>
<!-- Generator: Adobe Illustrator 21.0.2, SVG Export Plug-In . SVG Version: 6.00 Build 0)  -->
<svg version="1.1" id="Layer_1" xmlns="http://www.w3.org/2000/svg" xmlns:xlink="http://www.w3.org/1999/xlink" x="0px" y="0px"
	 viewBox="0 0 200 70" style="enable-background:new 0 0 200 70;" xml:space="preserve">
<style type="text/css">
	.st0{fill:none;stroke:#0A68EF;stroke-width:4.0326;stroke-miterlimit:10;}
	.st1{fill:none;stroke:#0A68EF;stroke-width:1.0081;stroke-miterlimit:10;}
	.st2{font-family:'ArialMT';}
	.st3{font-size:24.3926px;}
	.st4{fill:none;}
</style>
<g>
	<path class="st0" d="M26.6,61.6l-0.5-4.5h-0.2c-1.9,2.7-5.7,5.3-10.7,5.3c-7.1,0-10.7-5.1-10.7-10.2c0-8.5,7.5-13.2,21-13.2v-0.7
		c0-2.9-0.8-8.2-7.9-8.2c-3.2,0-6.6,1-9.1,2.6L4,29.1c2.9-1.9,10.1-3.7,14.5-3.7c10.7,0,13.2,7.4,13.2,14.5v13.2
		c0,3,0.1,6.1,0.6,8.5L26.6,61.6L26.6,61.6z M25.6,43.5c-6.9-0.1-14.8,1.1-14.8,7.9c0,4.2,2.7,6.1,6,6.1c4.5,0,7.4-2.9,8.4-5.9
		c0.2-0.6,0.4-1.4,0.4-2V43.5z"/>
	<path class="st0" d="M72.1,9.7v42.8c0,3.2,0.1,6.7,0.3,9.1h-5.7l-0.3-6.1h-0.1c-1.9,4-6.2,6.9-11.9,6.9c-8.4,0-14.9-7.2-14.9-18
		c-0.1-11.8,7.1-19,15.6-19c5.3,0,8.9,2.5,10.5,5.4h0.1V9.7L72.1,9.7L72.1,9.7z M65.7,40.5c0-0.8-0.1-1.9-0.3-2.7
		c-0.9-4.1-4.4-7.4-9.1-7.4c-6.6,0-10.4,5.9-10.4,13.7c0,7.2,3.5,13.1,10.3,13.1c4.2,0,8.1-2.8,9.3-7.7c0.2-0.9,0.3-1.7,0.3-2.7
		L65.7,40.5L65.7,40.5z"/>
	<path class="st0" d="M112.7,9.7v42.8c0,3.2,0.1,6.7,0.3,9.1h-5.7l-0.3-6.1h-0.1c-1.9,4-6.2,6.9-11.9,6.9c-8.4,0-14.9-7.2-14.9-18
		c-0.1-11.8,7.1-19,15.6-19c5.3,0,8.9,2.5,10.5,5.4h0.1V9.7L112.7,9.7L112.7,9.7z M106.3,40.5c0-0.8-0.1-1.9-0.3-2.7
		c-0.9-4.1-4.4-7.4-9.1-7.4c-6.6,0-10.4,5.9-10.4,13.7c0,7.2,3.5,13.1,10.3,13.1c4.2,0,8.1-2.8,9.3-7.7c0.2-0.9,0.3-1.7,0.3-2.7
		L106.3,40.5L106.3,40.5z"/>
</g>
<g>
	<text transform="matrix(0.9839 0 0 1 116 20.9326)" class="st1 st2 st3">product</text>
</g>
<rect x="150" y="3.7" class="st4" width="52" height="7.1"/>
<polygon class="st4" points="223,10.8 210,10.8 210,10.8 "/>
<polygon class="st4" points="177,15.9 201,15.9 201,15.9 "/>
<rect x="117" y="28" class="st1" width="81" height="2"/>
</svg>
