<?xml version="1.0" encoding="utf-8"?>
<!-- Generator: Adobe Illustrator 23.0.4, SVG Export Plug-In . SVG Version: 6.00 Build 0)  -->
<svg version="1.2" baseProfile="tiny" id="Layer_1" xmlns="http://www.w3.org/2000/svg" xmlns:xlink="http://www.w3.org/1999/xlink"
	 x="0px" y="0px" width="66px" height="20px" viewBox="0 0 66 20" xml:space="preserve">
<g>
	<path fill="#0A68EF" d="M5.3507991,19.7998047c-2.7143688,0-4.1345005-1.9653587-4.1345005-3.9065552
		c0-2.9543953,2.4735475-4.7092934,6.816442-4.8707943C7.9190855,9.937089,7.3198137,9.4474983,6.1320786,9.4474983
		c-0.9076509,0-1.8838129,0.278017-2.6115232,0.7437649L3.1272931,10.442894L0.5966797,8.4184027l0.7510772-0.4921341
		C2.4645965,7.1945844,4.94943,6.6477685,6.4250383,6.6477685c3.1909256,0,4.9483662,1.8846078,4.9483662,5.306499v4.2321014
		c0,0.8055992,0.0206652,1.829607,0.18153,2.6015091l0.1662703,0.7979698l-3.2416325-0.0565891l-0.0817051-0.7191277
		C7.6437702,19.371254,6.6094298,19.7998047,5.3507991,19.7998047z M8.7038622,12.3122416
		c-2.3099799,0-6.185379,0.4651108-6.185379,3.581008c0,1.2544975,0.8863506,2.6043701,2.8323157,2.6043701
		c0.8392992,0,1.5383968-0.2482929,2.0712247-0.5910053c-0.4399962,0.2053738-0.9561334,0.3306313-1.5504775,0.3306313
		c-1.5577898,0-2.6043701-1.0465794-2.6043701-2.6043692c0-0.7842989,0.26546-1.4436579,0.789227-1.9599533
		c0.8737931-0.8609171,2.4074211-1.2649889,4.6895828-1.2303362l0.6415548,0.0095377v2.5948324
		c0,0.3175983-0.1023693,0.673028-0.1634092,0.8564663c-0.1025276,0.2972507-0.2600555,0.6075382-0.4736948,0.9012928h0.7300949
		l0.1638851,1.4427032l0.5134354,0.0089016c-0.0740747-0.6841545-0.0866327-1.4125023-0.0866327-2.069952v-4.2321014
		c0-2.7318544-1.1586456-4.0043139-3.6461811-4.0043139c-1.0057282,0-2.4773624,0.29598-3.4991453,0.6641269l0.3037691,0.2430468
		C4.0955071,8.4069576,5.14781,8.1453133,6.1320786,8.1453133c2.0481753,0,3.2228761,1.1983852,3.2228761,3.2878895v0.8790388
		H8.7038622z M8.0853558,13.7485867c-1.8955755,0.0537281-2.7394843,0.4819613-3.1149435,0.8520155
		c-0.2699108,0.2657785-0.401051,0.6037235-0.401051,1.0322742c0,1.0761461,0.7081585,1.3021841,1.3021851,1.3021841
		c1.1952062,0,1.8885813-0.7808018,2.1192293-1.449379c0.064219-0.1932936,0.0945802-0.3643322,0.0945802-0.4387245V13.7485867z"/>
	<path fill="#0A68EF" d="M18.1121159,19.7998047c-3.1879044,0-5.5016994-2.6972008-5.5016994-6.4133244
		c-0.0178032-2.0677271,0.6485491-3.8917723,1.8765011-5.130374c1.0283003-1.0372014,2.3967705-1.6083379,3.8531456-1.6083379
		c1.0693111,0,2.0387955,0.2834225,2.7997284,0.7944727V1.6018018h3.3856487v14.3566208
		c0,1.066926,0.036562,2.1688242,0.0953751,2.8758707l0.0586567,0.7051373h-3.1823425l-0.0448265-0.8942986
		C20.5758076,19.3792019,19.4007893,19.7998047,18.1121159,19.7998047z M18.3400631,7.9499536
		c-1.1065083,0-2.1464119,0.4342732-2.9283276,1.2230239c-0.9815664,0.9901495-1.5140762,2.4843559-1.4991341,4.2077799
		c0,3.0151186,1.7269211,5.1168623,4.1995144,5.1168623c1.0662918,0,2.0209942-0.3710079,2.6774921-1.0077953
		c-0.5999088,0.4158363-1.3188763,0.6498222-2.0914135,0.6498222c-2.3951797,0-4.0043135-1.9494629-4.0043135-4.8507662
		c0-3.0181379,1.6221666-5.0459671,4.0367422-5.0459671c0.7989235,0,1.543642,0.2513132,2.1519737,0.6879711
		C20.3910999,8.4052095,19.5428982,7.9499536,18.3400631,7.9499536z M22.7357311,18.2372456h0.5412521
		c-0.0343342-0.6682587-0.0537281-1.4729061-0.0537281-2.2788229V2.9039867h-0.7812786v6.7714567h-0.7908173
		c0.3198242,0.4167881,0.5547638,0.908287,0.6771622,1.4519234c0.0823402,0.3287258,0.1131783,0.7420168,0.1136551,1.0166969
		L22.4742451,14.125c0.0001583,0.3691006-0.033699,0.6743002-0.113018,1.0306845
		c-0.1023693,0.4097939-0.2583084,0.7881136-0.4587536,1.1282835h0.7354984L22.7357311,18.2372456z M18.7306232,9.5450983
		c-2.0184517,0-2.7345572,2.016861-2.7345572,3.743782c0,1.715476,0.7099066,3.5485811,2.7021284,3.5485811
		c1.1545143,0,2.0949097-0.7776241,2.3958168-1.9812546c0.0543652-0.2454309,0.0782089-0.4587526,0.0782089-0.7207165
		l-0.0324287-1.986022c0-0.2400274-0.0322685-0.536643-0.0783653-0.721034
		C20.8554153,10.5134706,20.0407562,9.5450983,18.7306232,9.5450983z"/>
	<path fill="#0A68EF" d="M31.3293247,19.7998047c-3.1879044,0-5.5016994-2.6972008-5.5016994-6.4133244
		c-0.0178032-2.0677271,0.64855-3.8917723,1.8765011-5.130374c1.0283012-1.0372014,2.3967705-1.6083379,3.8531456-1.6083379
		c1.0693111,0,2.0384769,0.2834225,2.7995701,0.7944727V1.6018018h3.385807v14.3566208
		c0,1.0688353,0.0365601,2.1707315,0.0953751,2.8758707l0.058815,0.7051373H34.71418l-0.0448265-0.8942986
		C33.7928581,19.3792019,32.6178398,19.7998047,31.3293247,19.7998047z M31.557272,7.9499536
		c-1.1065083,0-2.1464119,0.4342732-2.9283276,1.2230239c-0.9815655,0.9901495-1.5140762,2.4843559-1.4991341,4.2077799
		c0,3.0151186,1.7269211,5.1168623,4.1995144,5.1168623c1.0662937,0,2.0209942-0.3706894,2.6774921-1.0077953
		c-0.6002274,0.416153-1.318718,0.6498222-2.0915718,0.6498222c-2.3950214,0-4.0041542-1.9494629-4.0041542-4.8507662
		c0-3.0181379,1.6221676-5.0459671,4.0367413-5.0459671c0.7990818,0,1.543642,0.2513132,2.152132,0.6881294
		C33.6081505,8.4052095,32.7602654,7.9499536,31.557272,7.9499536z M35.9527817,18.2372456h0.5414124
		c-0.0343361-0.667305-0.05373-1.4722691-0.05373-2.2788229V2.9039867h-0.7814369v6.7714567h-0.790657
		c0.3198242,0.4166298,0.5547638,0.9079685,0.6771622,1.4519234c0.0823402,0.3280897,0.1131783,0.7413807,0.1134949,1.0163784
		l0.0327454,1.9809361c0,0.3684654-0.0340157,0.673665-0.1134949,1.031003
		c-0.1023712,0.4097939-0.2581482,0.7881136-0.4587555,1.1282835h0.7032318l0.0632668,0.6186657L35.9527817,18.2372456z
		 M31.9478321,9.5450983c-2.0184517,0-2.7345562,2.016861-2.7345562,3.743782c0,1.715476,0.7097473,3.5485811,2.7019691,3.5485811
		c1.1546707,0,2.0950699-0.7776241,2.3958168-1.980937c0.0546837-0.2467022,0.0785255-0.4603424,0.0785255-0.721034
		l-0.0327454-1.986022c0-0.2406626-0.0321083-0.5369606-0.0782089-0.721034
		C34.0726242,10.5134706,33.2578049,9.5450983,31.9478321,9.5450983z"/>
</g>
<g>
	<g>
		<path fill="#0A68EF" d="M40.5069313,7.5819654h-1.0122452V1.6521914h0.9512062v0.265619
			c0.0820236-0.0713722,0.1681786-0.1322532,0.2581482-0.182166c0.2091866-0.1161984,0.4628868-0.1750129,0.754097-0.1750129
			c0.3773651,0,0.7159462,0.0991899,1.0065231,0.2947084c0.2902565,0.1953596,0.5118446,0.4733773,0.6584053,0.8261055
			c0.1424255,0.3427136,0.214592,0.7224646,0.214592,1.1287615c0,0.4357042-0.0797958,0.8348479-0.237484,1.1863046
			c-0.161499,0.3603582-0.4005737,0.6412373-0.7108612,0.8345304c-0.3083763,0.1923389-0.6383743,0.2897806-0.9807701,0.2897806
			c-0.2546501,0-0.4876823-0.0551586-0.692421-0.1640449c-0.0743942-0.0394216-0.1440163-0.0831351-0.2091904-0.1308227V7.5819654z
			 M39.8202324,7.2564192h0.3611526V4.9796619l0.2902565,0.3660803c0.1023712,0.1290741,0.2362137,0.2379603,0.3970795,0.3236389
			c0.3770485,0.2001281,0.9089203,0.1595941,1.3482819-0.1146088c0.2543335-0.1584811,0.4514427-0.3911958,0.5862389-0.6914678
			c0.1386108-0.3093324,0.2088699-0.66365,0.2088699-1.0530977c0-0.3632193-0.0639-0.7010052-0.1897964-1.0038204
			c-0.1217613-0.2928009-0.3032913-0.5218596-0.539505-0.6809766c-0.2358932-0.1586403-0.5134315-0.2392321-0.8246727-0.2392321
			c-0.23526,0-0.4358635,0.0451441-0.5964127,0.1340017c-0.1634064,0.090765-0.3134651,0.2308073-0.4463539,0.4159935
			l-0.2950249,0.4121783V1.9777377h-0.3001137V7.2564192z M41.3627625,5.5562029
			c-0.3487549,0-0.6485481-0.1451287-0.8911209-0.4314122c-0.2355728-0.2783356-0.3551102-0.7025948-0.3551102-1.2611737
			c0-0.5576251,0.1262131-0.9936473,0.3748207-1.2956676c0.2562408-0.311399,0.5598526-0.4694035,0.9019318-0.4694035
			c0.3446198,0,0.6428261,0.1495798,0.8866653,0.444447c0.2358971,0.2854888,0.355751,0.7107017,0.355751,1.2633991
			c0,0.5786078-0.122715,1.0176499-0.3643341,1.3047283C42.022438,5.4064646,41.7169228,5.5562029,41.3627625,5.5562029z
			 M41.3932838,2.4240921c-0.2435265,0-0.4562111,0.1147678-0.6507759,0.3508205
			c-0.1993332,0.2422523-0.3004303,0.6084919-0.3004303,1.0887043c0,0.4794178,0.0934677,0.8329406,0.2781754,1.0507131
			c0.1802597,0.2128448,0.3903999,0.3163266,0.6425095,0.3163266c0.2571945,0,0.4727402-0.1077733,0.659359-0.329361
			c0.1910667-0.2266746,0.2880325-0.5951395,0.2880325-1.0949037c0-0.4749668-0.0947418-0.8303971-0.2813568-1.0561178
			C41.8472672,2.5307529,41.6393509,2.4240921,41.3932838,2.4240921z"/>
		<path fill="#0A68EF" d="M44.8445816,6.0292625h-1.0122452V1.6521914h0.943573v0.2414575
			c0.0613594-0.0705774,0.1220818-0.1260538,0.1818504-0.1672239c0.3780022-0.2587838,0.8647308-0.2033075,1.3241196,0.0797969
			l0.1134987,0.0699416l-0.3506622,0.9448471l-0.1675415-0.099031c-0.2600555-0.1538715-0.5267868-0.1756487-0.7270775-0.0236847
			c-0.0928307,0.0701005-0.1580009,0.1667471-0.1986961,0.2951853c-0.0708961,0.2265153-0.1068192,0.4797356-0.1068192,0.7518718
			V6.0292625z M44.1578827,5.7037163h0.3611526V3.745352c0-0.3050406,0.0410118-0.5910063,0.1217613-0.8496311
			c0.0613594-0.1929753,0.1665878-0.3465288,0.3128281-0.4571636c0.2587852-0.1948829,0.5957756-0.2152295,0.9165535-0.0832942
			l0.1252594-0.3371501c-0.307106-0.1560969-0.6107178-0.190114-0.8532867-0.023049
			c-0.0769348,0.052615-0.2063293,0.1842324-0.3862686,0.5124811l-0.3055191,0.5566711V1.9777377h-0.2924805V5.7037163z"/>
		<path fill="#0A68EF" d="M48.2488289,6.1208224c-0.6104012,0-1.112709-0.2002873-1.4926186-0.5954576
			c-0.3783188-0.3934212-0.5700226-0.9601068-0.5700226-1.684638c0-0.7960622,0.2295341-1.3985136,0.6819305-1.7901864
			c0.3773651-0.3252282,0.8418427-0.4899089,1.3807106-0.4899089c0.6002235,0,1.0990372,0.2009231,1.4827614,0.5970469
			c0.3821335,0.3945339,0.5760651,0.9416678,0.5760651,1.6258235c0,0.5455444-0.0852013,0.9849045-0.2530632,1.3058412
			c-0.1707191,0.3261819-0.4225121,0.5828996-0.7483749,0.7631578C48.984169,6.0305343,48.6287384,6.1208224,48.2488289,6.1208224z
			 M48.2488289,1.8861778c-0.4651108,0-0.8472481,0.1343195-1.168026,0.4107478
			c-0.3773651,0.326818-0.5690689,0.846452-0.5690689,1.5438013c0,0.6374221,0.1611824,1.1282849,0.4790993,1.4589176
			c0.3207779,0.3334942,0.7321625,0.4956317,1.2579956,0.4956317c0.3239555,0,0.6266136-0.0766182,0.899704-0.2276282
			c0.2692719-0.1487846,0.4768715-0.360517,0.6173935-0.6293154c0.1433792-0.2738848,0.2161827-0.6623783,0.2161827-1.1548307
			c0-0.5967286-0.1630936-1.0675626-0.4845047-1.3994672C49.1730118,2.0491099,48.7644882,1.8861778,48.2488289,1.8861778z
			 M48.2488289,5.5562029c-0.3907204,0-0.7194443-0.1489439-0.9769554-0.4426985
			c-0.2521095-0.2875552-0.3799133-0.7157884-0.3799133-1.2727776c0-0.5571482,0.1278038-0.9849045,0.3802299-1.271188
			c0.2575111-0.2923241,0.5862389-0.4404731,0.9766388-0.4404731c0.3853149,0,0.7121315,0.1487849,0.9709167,0.4423804
			c0.2536964,0.2875555,0.3821335,0.7068868,0.3821335,1.2463908c0,0.5695469-0.1278,1.0047743-0.3795929,1.293442
			C48.9647751,5.4064646,48.6370049,5.5562029,48.2488289,5.5562029z M48.2488289,2.454612
			c-0.296936,0-0.536644,0.1079326-0.7324791,0.3301561c-0.1983795,0.2250848-0.2988434,0.5803561-0.2988434,1.0559587
			c0,0.4757619,0.1007805,0.8318281,0.29916,1.0581841c0.1958389,0.2231774,0.4352264,0.3317456,0.7321625,0.3317456
			c0.2940712,0,0.5325089-0.109045,0.7280273-0.3333349c0.1986961-0.227787,0.2994766-0.5908475,0.2994766-1.0794847
			c0-0.4577994-0.1010971-0.804805-0.3007469-1.0311613C48.7784767,2.5631804,48.5406761,2.454612,48.2488289,2.454612z"/>
		<path fill="#0A68EF" d="M52.4453239,6.1208224c-0.3538437,0-0.6835213-0.0988722-0.9801369-0.2937546
			c-0.2953453-0.194088-0.5267868-0.4676552-0.6876526-0.8130713c-0.1583214-0.3393755-0.2384377-0.7329555-0.2384377-1.1694548
			c0-0.4237823,0.0721664-0.8148193,0.2142754-1.1623018c0.1468773-0.3590863,0.3719635-0.6390116,0.6685791-0.8319868
			c0.2950249-0.1921803,0.6291542-0.2896217,0.9928513-0.2896217c0.2702293,0,0.5159798,0.0584966,0.7296181,0.1740592
			c0.0804329,0.0433956,0.1557808,0.0923548,0.2254028,0.1464005V0.1109335h1.0084305v5.9183292h-0.9626503V5.7908254
			C53.1568184,6.0101876,52.8322258,6.1208224,52.4453239,6.1208224z M52.4148026,1.8861778
			c-0.2994766,0-0.5738373,0.079638-0.8154564,0.2368476c-0.2400246,0.1562557-0.4231453,0.3859503-0.54459,0.6825662
			c-0.1262131,0.3080609-0.1901131,0.6577687-0.1901131,1.0389502c0,0.3886526,0.0699425,0.7358172,0.2079163,1.0317972
			c0.1351166,0.2899399,0.3274536,0.5182037,0.5712967,0.6785922c0.246067,0.1618195,0.5083466,0.240345,0.8014679,0.240345
			c0.4431725,0,0.7690392-0.1726289,0.9960289-0.527741l0.2997971-0.4690857v0.9052668h0.3115578V0.4364797h-0.357338v2.3468575
			l-0.2947083-0.4075685c-0.1045952-0.1444931-0.242569-0.2638705-0.4107475-0.3546357
			C52.8239594,1.9316398,52.6306686,1.8861778,52.4148026,1.8861778z M52.5101776,5.5562029
			c-0.3462105,0-0.6482315-0.1489439-0.8984299-0.4425392c-0.2435265-0.2859659-0.3668785-0.7129273-0.3668785-1.2691219
			c0-0.580833,0.112545-1.0003233,0.3439865-1.2821562c0.2362137-0.2875552,0.5360069-0.4333198,0.8908005-0.4333198
			c0.3624268,0,0.6701698,0.1508512,0.9152832,0.448421c0.2406616,0.292165,0.3576546,0.7253258,0.3576546,1.32428
			c0,0.5410933-0.1189003,0.9547024-0.3538399,1.2292233C53.1577721,5.4131408,52.8586121,5.5562029,52.5101776,5.5562029z
			 M52.4796562,2.454612c-0.2562408,0-0.4654274,0.1028459-0.6390114,0.3144193
			c-0.1793022,0.2182496-0.2702293,0.5800381-0.2702293,1.0755105c0,0.4767153,0.0972824,0.8326228,0.2893066,1.0580256
			c0.1878891,0.2207928,0.4005737,0.3280892,0.6504555,0.3280892c0.2524261,0,0.4622498-0.1017332,0.6412354-0.3110809
			c0.1828041-0.2141166,0.2756348-0.5565124,0.2756348-1.0178089c0-0.5131168-0.0953751-0.8890526-0.2832642-1.1173167
			C52.9609833,2.5625446,52.7438469,2.454612,52.4796562,2.454612z"/>
		<path fill="#0A68EF" d="M56.6647072,6.1208224c-0.2606926,0-0.5080299-0.0508666-0.7353401-0.1511693
			c-0.2330322-0.1030049-0.4104309-0.2371655-0.5277405-0.3986669c-0.1134949-0.1568918-0.1942482-0.3495493-0.2393913-0.5725675
			c-0.030201-0.1462412-0.0451431-0.3667164-0.0451431-0.6731877V1.6521914h1.0122452v2.4098051
			c0,0.4296641,0.0206642,0.611989,0.0381508,0.6892424c0.033699,0.140996,0.1033211,0.2497234,0.212368,0.3298383
			c0.2285805,0.1686544,0.6123047,0.1669059,0.9200478-0.0131936c0.1503754-0.0879035,0.2533798-0.2033072,0.3150558-0.3527279
			c0.0664444-0.1611834,0.1001434-0.4066148,0.1001434-0.7294588V1.6521914h1.0122452v4.3770714h-0.9397621V5.7056236
			C57.4814339,5.9814157,57.1056557,6.1208224,56.6647072,6.1208224z M55.4426384,1.9777377v2.3474934
			c0,0.2800846,0.0130348,0.4845047,0.0384674,0.6078563c0.0362434,0.1777148,0.0979156,0.3279305,0.184391,0.4468312
			c0.0826569,0.1142907,0.2158661,0.2125268,0.3954887,0.2918468c0.1853447,0.0820227,0.3884926,0.1235108,0.6037216,0.1235108
			c0.4892731,0,0.8660049-0.2015591,1.1514931-0.616281l0.2969322-0.4307761v0.9554973h0.2886696V1.9777377h-0.3611526v2.0079591
			c0,0.3708491-0.0406952,0.6501389-0.1249428,0.8537641c-0.0883789,0.2145934-0.240345,0.3861094-0.4517593,0.5094609
			c-0.4148788,0.2432055-0.9458008,0.2382779-1.2773857-0.0055637c-0.1710396-0.1260538-0.2842178-0.3004308-0.3363571-0.5186806
			c-0.0314713-0.139883-0.0464134-0.3886523-0.0464134-0.762681V1.9777377H55.4426384z"/>
		<path fill="#0A68EF" d="M61.2732201,6.1208224c-0.5989532,0-1.0888634-0.2004466-1.4563713-0.5956163
			c-0.3643341-0.3918319-0.5490417-0.9534307-0.5490417-1.6692193c0-0.4582763,0.0778885-0.8666396,0.2314415-1.2141221
			c0.1589584-0.3597224,0.4050255-0.633925,0.731842-0.8148193c0.319191-0.1767615,0.6711235-0.2664139,1.0459442-0.2664139
			c0.475605,0,0.8730011,0.1241463,1.1810608,0.3692598c0.3096504,0.2463851,0.5102539,0.5978415,0.5964088,1.0445137
			l0.0317917,0.1659524l-0.9836311,0.1518049l-0.0343361-0.1468773c-0.0550003-0.2362118-0.150692-0.413609-0.2845345-0.5272641
			c-0.1322517-0.1125424-0.2893028-0.1672239-0.4800529-0.1672239c-0.29916,0-0.5350533,0.1034818-0.7203979,0.3161676
			c-0.1885262,0.2163422-0.2842178,0.5762234-0.2842178,1.0699472c0,0.5021489,0.0921974,0.8660038,0.2743607,1.081392
			c0.1777153,0.2101426,0.4040718,0.3123527,0.6921043,0.3123527c0.229538,0,0.4145622-0.06708,0.5652542-0.205215
			c0.151329-0.1384525,0.2495651-0.3622656,0.2921677-0.6657166l0.0225716-0.1594348l1.0008011,0.1300278l-0.0260696,0.1653166
			C63.0405159,4.997942,62.831646,5.3983574,62.499424,5.6862307C62.1665649,5.9745808,61.7539101,6.1208224,61.2732201,6.1208224z
			 M61.2770348,1.8861778c-0.3188667,0-0.6177101,0.075982-0.8882561,0.2257206
			c-0.2667313,0.1476719-0.4603424,0.3641729-0.5919609,0.6615837c-0.1351128,0.3056765-0.2034645,0.6698494-0.2034645,1.0825047
			c0,0.6309049,0.1554604,1.1179526,0.4619293,1.4476316c0.3077431,0.330792,0.7060928,0.4916577,1.2179375,0.4916577
			c0.4059792,0,0.7372475-0.1161985,1.0131989-0.3551126c0.2400284-0.2080765,0.3980331-0.4808483,0.4800568-0.830874
			l-0.3490753-0.0454621c-0.0654907,0.3029742-0.1882057,0.5383911-0.3665543,0.7016411
			c-0.2107811,0.192975-0.474968,0.2907343-0.7852554,0.2907343c-0.3843613,0-0.7006874-0.143857-0.940712-0.4277563
			c-0.2365303-0.2796073-0.3512993-0.7021179-0.3512993-1.2915347c0-0.5746336,0.122715-1.0065229,0.3643341-1.2839048
			c0.2473373-0.2838993,0.572567-0.4277563,0.9658279-0.4277563c0.2676849,0,0.5000801,0.0823402,0.6911507,0.2447956
			c0.1567307,0.1333659,0.274044,0.3196647,0.3503418,0.5552406l0.3506622-0.0540457
			c-0.0832939-0.292165-0.2282639-0.5177267-0.4406319-0.6866992C62.0063362,1.9866394,61.6772919,1.8861778,61.2770348,1.8861778z"
			/>
		<path fill="#0A68EF" d="M64.6266022,6.0826721c-0.2807236,0-0.4969025-0.0457797-0.6609497-0.139883
			c-0.1675415-0.0961695-0.2880325-0.2265153-0.3579712-0.387063c-0.0667648-0.1525998-0.0976028-0.4309354-0.0976028-0.8757005
			V2.511837h-0.5035782V1.6521914h0.5035782V0.7197431l1.0084305-0.6084917v1.54094h0.6905136V2.511837h-0.6905136v2.2063389
			c0,0.2487693,0.020668,0.3075838,0.0228882,0.3134651c0.0108109,0.0243206,0.0276642,0.0430779,0.053093,0.058497
			c0.0225754,0.0133524,0.1551437,0.0398984,0.4288712,0.0009537l0.1576843-0.022572l0.1500549,0.9175062l-0.1522751,0.0321093
			C64.9756775,6.060895,64.7896957,6.0826721,64.6266022,6.0826721z M63.3320465,2.1862907h0.5035782v2.4937348
			c0,0.5081892,0.0441933,0.6852689,0.0702591,0.7456727c0.0422859,0.0964875,0.114769,0.1732645,0.2219086,0.2347813
			c0.1624527,0.0931497,0.4434891,0.1285973,0.8313522,0.0675573L64.91082,5.4326925
			c-0.2374878,0.0227308-0.3741913,0.0031791-0.4848251-0.0640602c-0.083931-0.0507073-0.145607-0.1208081-0.1834335-0.2082353
			c-0.0244827-0.0567479-0.0495987-0.1537123-0.0495987-0.4422212V2.1862907h0.6905136V1.9777377h-0.6905136V0.6879514
			l-0.357338,0.2155473v1.074239h-0.5035782V2.1862907z"/>
	</g>
</g>
<rect x="48.9088211" y="0.3322032" fill="none" width="16.9284039" height="2.2788236"/>
<polygon fill="none" points="56.6985703,4.2387581 64.5116806,4.2387581 64.5116806,4.2387581 "/>
<path fill="#0A68EF" d="M66,8.9591789H39.3052101V7.9825397H66V8.9591789z M39.6307564,8.6336327h26.0436974V8.3080864H39.6307564
	V8.6336327z"/>
</svg>
